PathFileType	4	(X/Y/Z)	C:/Users/opensim2020/Desktop/walking_exp_matlab/subject06_walking19_straight_01.trc																																																																																																																																																	
DataRate	CameraRate	NumFrames	NumMarkers	Units	OrigDataRate	OrigDataStartFrame	OrigNumFrames																																																																																																																																													
100	100	5	49	mm	100	1274	472																																																																																																																																													
Frame#	Time	LFHD			RFHD			LBHD			RBHD			C7			T10			CLAV			STRN			RBAK			LSHO			LUPA			LELB			LFRM			LWRA			LWRB			LFIN			RSHO			RUPA			RELB			RFRM			RWRA			RWRB			RFIN			LASI			RASI			LPSI			RPSI			LTHI			LKNE			LTIB			LANK			LHEE			LTOE			RTHI			RKNE			RTIB			RANK			RHEE			RTOE			*39			*40			*41			*42			*43			*44			*45			*46			*47			*48		
		X1	Y1	Z1	X2	Y2	Z2	X3	Y3	Z3	X4	Y4	Z4	X5	Y5	Z5	X6	Y6	Z6	X7	Y7	Z7	X8	Y8	Z8	X9	Y9	Z9	X10	Y10	Z10	X11	Y11	Z11	X12	Y12	Z12	X13	Y13	Z13	X14	Y14	Z14	X15	Y15	Z15	X16	Y16	Z16	X17	Y17	Z17	X18	Y18	Z18	X19	Y19	Z19	X20	Y20	Z20	X21	Y21	Z21	X22	Y22	Z22	X23	Y23	Z23	X24	Y24	Z24	X25	Y25	Z25	X26	Y26	Z26	X27	Y27	Z27	X28	Y28	Z28	X29	Y29	Z29	X30	Y30	Z30	X31	Y31	Z31	X32	Y32	Z32	X33	Y33	Z33	X34	Y34	Z34	X35	Y35	Z35	X36	Y36	Z36	X37	Y37	Z37	X38	Y38	Z38	X39	Y39	Z39	X40	Y40	Z40	X41	Y41	Z41	X42	Y42	Z42	X43	Y43	Z43	X44	Y44	Z44	X45	Y45	Z45	X46	Y46	Z46	X47	Y47	Z47	X48	Y48	Z48	X49	Y49	Z49
																																																																																																																																																				
414	4.13	1048.29565	1671.72693	1381.04248	1056.67017	1659.23364	1511.89307	915.75659	1616.05847	1387.78345	925.41223	1608.43921	1516.90784	917.04694	1461.66064	1443.79187	876.45709	1133.42261	1453.24451	1023.39447	1381.19189	1436.88159	1057.71179	1204.50208	1428.99182	846.89246	1292.80493	1530.4679	959.25464	1413.36279	1279.22852	941.91315	1212.37134	1205.45789	932.85522	1100.90894	1191.86169	962.61157	953.92114	1165.72302	1034.27466	844.36475	1200.75549	972.32446	834.68964	1168.698	1020.44794	758.48181	1161.65283	993.68701	1414.98462	1599.31787	968.5755	1216.8728	1692.50171	985.42352	1095.8075	1701.64355	1024.104	981.55603	1705.59424	1102.57068	861.98767	1649.11328	1059.64563	848.89819	1698.69727	1112.29102	784.41449	1687.69617	1043.47766	971.54755	1329.50757	1053.34741	969.80444	1549.8457	888.2464	1001.16827	1364.3772	900.72131	1003.27228	1532.82544	1016.8432	660.51813	1265.85486	1057.37744	502.09534	1290.55176	988.47406	258.92679	1303.44116	968.02234	86.90832	1343.24255	932.90192	73.36225	1394.81165	1105.18091	49.96833	1324.54187	977.63666	635.82996	1592.02185	967.90179	510.86832	1565.03088	889.03955	256.13779	1557.2428	842.71155	75.64696	1508.89453	795.25012	55.41746	1468.70728	991.11182	38.3867	1496.97717	951.19025	1707.9978	1446.29846	NaN	NaN	NaN	NaN	NaN	NaN	NaN	NaN	NaN	NaN	NaN	NaN	NaN	NaN	NaN	NaN	NaN	NaN	NaN	NaN	NaN	NaN	NaN	NaN	NaN	NaN	NaN
415	4.14	1053.65637	1670.901	1380.22461	1062.26611	1658.74304	1511.14502	921.11487	1615.526	1387.30859	930.88983	1608.2627	1516.49438	922.1958	1461.10449	1443.79993	881.914	1132.60669	1453.51697	1028.60986	1380.60815	1436.72888	1062.9751	1203.97559	1429.04309	852.2207	1292.26904	1530.67749	964.20032	1412.59717	1279.11145	945.8775	1211.68213	1205.48328	936.11548	1100.1936	1192.18567	964.7735	952.91809	1165.85083	1035.50525	842.78107	1200.6637	973.20441	833.64203	1168.62219	1020.61798	756.92084	1161.724	999.0943	1414.6521	1599.24329	974.09283	1216.61633	1692.64319	991.04492	1095.55933	1701.82874	1030.07251	981.4693	1705.57153	1108.72437	862.21991	1648.6394	1066.05359	849.03241	1698.49438	1118.8125	784.69104	1687.14197	1048.75916	970.87756	1329.58557	1058.35474	969.11194	1549.92102	893.45966	1000.75055	1364.31421	905.82562	1002.69238	1532.74548	1022.5943	660.05725	1265.52087	1064.92224	502.13745	1290.86804	1004.02539	256.77652	1303.40063	989.58435	84.14606	1342.86719	955.05811	69.83216	1394.55286	1127.81763	50.41861	1324.84656	981.53857	635.10052	1591.69434	971.25201	510.29852	1564.92029	890.70135	255.95403	1557.09583	842.98639	75.76927	1508.91492	795.37866	55.72253	1468.75208	991.08691	38.45852	1496.98425	956.79462	1707.54822	1445.56165	NaN	NaN	NaN	NaN	NaN	NaN	NaN	NaN	NaN	NaN	NaN	NaN	NaN	NaN	NaN	NaN	NaN	NaN	NaN	NaN	NaN	NaN	NaN	NaN	NaN	NaN	NaN
416	4.15	1058.89453	1669.9812	1379.38049	1067.83862	1658.19287	1510.29016	926.36969	1614.91663	1386.82178	936.39246	1607.95093	1516.00037	927.43311	1460.45129	1443.72729	886.92505	1132.375	1453.33313	1033.87268	1379.98132	1436.57056	1068.26379	1203.38391	1429.0575	857.59344	1291.66467	1530.83752	969.09857	1411.77783	1278.95764	949.79858	1210.85852	1205.6178	939.38159	1099.4967	1192.51611	966.68829	951.95959	1166.16772	1036.71936	841.12268	1200.69446	974.56598	832.6626	1168.98596	1021.15668	755.52594	1161.6875	1004.49091	1414.23303	1599.10083	979.49445	1216.17285	1692.48413	996.64178	1095.20496	1701.97083	1036.21387	981.38538	1705.83289	1114.76575	862.29004	1648.25537	1072.22485	848.85645	1698.03186	1125.20459	784.75494	1686.56897	1054.12207	970.1308	1329.63733	1063.34583	968.30518	1549.93738	898.84161	1000.14819	1364.14038	910.80872	1002.15399	1532.70752	1029.41724	659.30029	1265.34497	1072.4209	502.06079	1291.10486	1019.60681	254.87077	1303.13086	1010.93524	81.71108	1342.32874	976.29199	66.60004	1393.75891	1150.27698	51.10178	1325.35217	985.46234	634.34265	1591.20569	974.5672	509.61539	1564.79309	892.37695	255.79936	1557.00891	843.22266	75.96395	1508.88721	795.48804	56.0405	1468.7251	991.37793	38.60315	1497.1377	962.34131	1707.03308	1444.77295	NaN	NaN	NaN	NaN	NaN	NaN	NaN	NaN	NaN	NaN	NaN	NaN	NaN	NaN	NaN	NaN	NaN	NaN	NaN	NaN	NaN	NaN	NaN	NaN	NaN	NaN	NaN
417	4.16	1064.40527	1669.13086	1378.50073	1076.22717	1658.38977	1511.41809	931.63373	1614.32471	1386.35474	941.91534	1607.61731	1515.50012	932.70862	1459.76379	1443.51855	892.12451	1131.82239	1453.28125	1039.22375	1379.40271	1436.44019	1073.51953	1202.69775	1429.02698	862.92566	1291.11365	1530.9917	974.07135	1410.9082	1278.72949	953.82758	1210.05334	1205.73169	942.42297	1098.74988	1192.70117	968.8634	951.0387	1166.41821	1038.08887	839.63501	1200.74548	975.51221	831.62469	1169.14771	1021.30096	753.93024	1162.11572	1009.92377	1413.76123	1598.9082	985.08795	1215.90454	1692.77747	1002.19727	1094.83081	1702.04114	1041.99512	981.07257	1705.54211	1120.73145	862.24152	1647.79492	1078.3584	848.67377	1697.74475	1131.50696	784.79169	1686.1759	1059.59875	969.48987	1329.71509	1068.32642	967.51483	1549.98181	903.8717	999.84503	1363.76599	915.65723	1001.50244	1532.60535	1034.97302	658.88776	1265.09607	1079.83752	501.89206	1291.42065	1034.89941	253.14771	1302.84924	1032.09155	79.59148	1341.86414	997.85352	63.9647	1393.25916	1172.46375	51.93097	1325.74915	989.29877	633.76831	1591.08264	977.85022	508.99017	1564.78235	893.82977	255.56337	1557.04053	843.48694	76.18736	1508.85156	795.61133	56.43296	1468.61633	991.57422	38.6444	1497.32458	967.90802	1706.48718	1444.00769	NaN	NaN	NaN	NaN	NaN	NaN	NaN	NaN	NaN	NaN	NaN	NaN	NaN	NaN	NaN	NaN	NaN	NaN	NaN	NaN	NaN	NaN	NaN	NaN	NaN	NaN	NaN
418	4.17	1069.80042	1668.13904	1377.61902	1078.93933	1656.91565	1508.49646	937.01672	1613.61572	1385.77307	947.42896	1607.21155	1514.95227	938.00439	1459.06677	1443.33289	897.36633	1131.02612	1453.19824	1044.54724	1378.69019	1436.17859	1078.83337	1201.96667	1428.96216	868.35052	1290.51611	1531.08386	979.15216	1410.03906	1278.44031	957.87317	1209.17529	1205.8219	945.79224	1097.92786	1192.95044	970.83392	949.92554	1166.77185	1039.39441	838.06445	1200.79907	976.54303	830.49854	1169.52319	1022.10364	752.58398	1162.10632	1015.44556	1413.21802	1598.70276	990.53534	1215.36475	1692.56738	1007.78003	1094.34534	1702.0769	1047.75696	980.72583	1705.55823	1126.57788	862.07666	1647.36975	1084.37097	848.36267	1697.39929	1137.52747	784.52216	1685.52637	1065.07727	968.68872	1329.76099	1073.23474	966.68378	1550.0321	909.05145	999.14276	1363.49268	920.69189	1000.86407	1532.36938	1041.56641	658.06915	1264.84167	1087.31409	501.72723	1291.53162	1049.98792	251.61325	1302.54785	1052.82922	78.19744	1340.99487	1018.52368	61.75604	1392.2699	1194.25037	53.31812	1326.26917	993.11444	633.18225	1590.92163	980.974	508.40598	1564.86182	895.26215	255.49084	1557.01782	843.71118	76.43354	1508.83594	795.72034	56.67145	1468.521	991.51721	38.45982	1497.21387	973.47083	1705.82959	1443.1333	NaN	NaN	NaN	NaN	NaN	NaN	NaN	NaN	NaN	NaN	NaN	NaN	NaN	NaN	NaN	NaN	NaN	NaN	NaN	NaN	NaN	NaN	NaN	NaN	NaN	NaN	NaN
